<?xml version="1.0" encoding="utf-8"?>
<!-- Generator: Adobe Illustrator 23.0.0, SVG Export Plug-In . SVG Version: 6.00 Build 0)  -->
<svg version="1.1" id="Layer_1" xmlns="http://www.w3.org/2000/svg" xmlns:xlink="http://www.w3.org/1999/xlink" x="0px" y="0px"
	 viewBox="0 0 841.9 595.3" style="enable-background:new 0 0 841.9 595.3;" xml:space="preserve">
<style type="text/css">
	.st0{fill:#6E7DC0;}
	.st1{fill:#FFFFFF;stroke:#FFFFFF;stroke-miterlimit:10;}
	.st2{opacity:0.1;}
	.st3{fill-rule:evenodd;clip-rule:evenodd;fill:#6E7DBC;}
</style>
<g>
	<path class="st3" d="M182.9,555.6h31.9c0.2,0,0.2,0,0.2-0.2V421.6c0-0.2,0-0.2-0.2-0.2h-31.9c-0.2,0-0.2,0-0.2,0.2v133.8
		C182.8,555.6,182.8,555.6,182.9,555.6L182.9,555.6z"/>
	<path class="st3" d="M434.6,446.9c-20,0-31.1,5.9-45.3,17.6c0,0-0.2-0.2-0.2,0c0-1.1,0.5-8.2-0.9-8.2c-8.8,0-21.9-0.3-31.3,0v98.8
		c12.2,0.2,32.2,0,32.2,0c0.2-19.1,0.2-40.7,0.2-61.1c1.2-8.6,9.9-21.6,32.1-21.6c15.7-1.2,19.4,11.1,19.4,25c0,15.4,0,37.6,0,57.7
		h32.1c0-8.6,3.4-60.8-1.2-80.5C466,450,441.7,447.2,434.6,446.9L434.6,446.9z"/>
	<path class="st3" d="M46,412.5l33,8.9v37c10.2-6.5,22.5-10.3,35.9-10.3c33.5,0,60.8,24.4,60.8,54.1c0,29.8-27.3,54.1-60.8,54.1
		c-13.4,0-25.8-3.7-35.9-10.2v9.1H46V412.5L46,412.5z M110,473.1c17.3,0,31.1,13.3,31.1,29.9c0,16.3-13.9,29.9-31.1,29.9
		c-17,0-30.8-13.6-30.8-29.9C79.2,486.4,93,473.1,110,473.1L110,473.1z"/>
	<path class="st3" d="M609.9,412.5l-33.3,8.9l-0.2,37.2c-10-6.5-22.4-10.5-35.8-10.5c-33.5,0-60.8,24.4-60.8,54.1
		c0,29.8,27.3,54.1,60.8,54.1c13.1,0,25.4-3.7,35.5-10l-0.2,8.9h33.9V412.5L609.9,412.5z M545.6,473.1c-17,0-30.8,13.3-30.8,29.9
		c0,16.3,13.9,29.9,30.8,29.9c17.3,0,31.1-13.6,31.1-29.9C576.8,486.4,562.9,473.1,545.6,473.1L545.6,473.1z"/>
	<path class="st3" d="M741.3,509c-0.3-38.2-15.3-64.6-65.7-62.8c-39.8,0.9-60.1,21.4-59.4,58.9c3.2,36.7,23.6,47.5,57.4,52.4
		c29.1,1.1,49.7-8.9,56.6-22.8c-7.6-5.4-17-10.2-24.4-15.4c-8.2,11.4-15.4,17.4-27.8,15.6c-21.6-3.2-25.1-13.6-25.9-25.7
		C681,509.2,712.6,509,741.3,509L741.3,509z M653.5,487.9c1.9-11.1,8-20.4,25.6-21.6c15.7,0,25.6,9.6,25.6,21.6
		C704.7,487.9,652.3,487.9,653.5,487.9L653.5,487.9z"/>
	<path class="st3" d="M348.1,509c-0.3-38.2-15.3-64.6-65.7-62.8c-39.8,0.9-60.1,21.4-59.4,58.9c3.2,36.7,23.6,47.5,57.4,52.4
		c29.1,1.1,49.7-8.9,56.6-22.8c-7.9-5.1-16.7-10.5-24.4-15.4c-8.2,11.4-15.4,17.4-27.8,15.6c-21.6-3.2-25.1-13.6-25.9-25.7
		C287.8,509.2,319.4,509,348.1,509L348.1,509z M260.3,487.9c1.9-11.1,8-20.4,25.6-21.6c15.7,0,25.6,9.6,25.6,21.6
		C311.5,487.9,259.1,487.9,260.3,487.9L260.3,487.9z"/>
	<path class="st3" d="M753.3,555.3h30.5c0.6,0,0.9,0,0.9-0.3v-60.6c7.2-14.3,19.4-17.4,37.5-16.7l-0.2-27.6
		c-21.1,0.8-27.3,2.6-37.3,13.6v-7.4c0-0.3-0.3-0.3-0.9-0.3h-30.5c-0.6,0-0.9,0-0.9,0.3V555C752.4,555.3,752.7,555.3,753.3,555.3
		L753.3,555.3z"/>
	<path class="st3" d="M400,156.3H243.1c-28.2,2.2-23.7,39.8-2.9,39.5c19.3-0.3,51.7,0,74.6,0c-33,31.1-106.7,78.3-138.9,109
		c-12.5,11.9-11.7,46.4,24.5,38.4c13.7-7.6,75.7-58.1,84.2-66.8c4.3,107.5,125.2,157.9,216,94.8c48.3-33.6,64.9-118.7,27.1-160.7
		c-29.8-33.3-84-66.6-149-120.7c-10.3-8.5-41.3-4.2-30.8,21.1C348,111,375.6,138.6,400,156.3L400,156.3z M415.8,194.1
		c44.7,0,81.4,33,81.4,73.1c0,40.4-36.7,73.1-81.4,73.1c-45,0-81.4-32.7-81.4-73.1C334.4,227.1,370.8,194.1,415.8,194.1L415.8,194.1
		z"/>
	<path class="st3" d="M418.7,217.7c27.8,0,50.5,21.4,50.5,47.6c0,26.2-22.7,47.6-50.5,47.6s-50.5-21.4-50.5-47.6
		C368.2,239.1,390.9,217.7,418.7,217.7L418.7,217.7z"/>
</g>
</svg>
