<?xml version="1.0" encoding="utf-8"?>
<!-- Generator: Adobe Illustrator 23.0.0, SVG Export Plug-In . SVG Version: 6.00 Build 0)  -->
<svg version="1.1" id="Layer_1" xmlns="http://www.w3.org/2000/svg" xmlns:xlink="http://www.w3.org/1999/xlink" x="0px" y="0px"
	 viewBox="0 0 841.9 595.3" style="enable-background:new 0 0 841.9 595.3;" xml:space="preserve">
<style type="text/css">
	.st0{fill:#6E7DC0;}
	.st1{fill:#FFFFFF;stroke:#FFFFFF;stroke-miterlimit:10;}
	.st2{opacity:0.1;}
	.st3{fill-rule:evenodd;clip-rule:evenodd;fill:#6E7DBC;}
</style>
<rect x="144.3" y="17.2" class="st0" width="570" height="560.1"/>
<rect x="193.8" y="66.6" class="st1" width="468" height="462.1"/>
<g>
	<g class="st2">
		<path d="M296.6,185.3c15.2-2.8,36.4-4.9,65.1-4.9c31.2,0,54.1,6.6,68.9,19.1c13.9,11.4,22.9,29.8,22.9,51.6
			c0,22.2-6.9,40.5-20.1,53c-17,17-43.7,24.9-73.8,24.9c-8,0-15.2-0.3-20.8-1.4v88h-42.3V185.3z M338.8,294.1
			c5.2,1.4,12.1,1.7,20.8,1.7c31.9,0,51.3-15.6,51.3-43c0-26-18-39.8-47.5-39.8c-11.8,0-20.1,1-24.6,2.1V294.1z"/>
	</g>
	<g>
		<path class="st0" d="M296.6,184c15.2-2.8,36.4-4.9,65.1-4.9c31.2,0,54.1,6.6,68.9,19.1c13.9,11.4,22.9,29.8,22.9,51.6
			c0,22.2-6.9,40.5-20.1,53c-17,17-43.7,24.9-73.8,24.9c-8,0-15.2-0.3-20.8-1.4v88h-42.3V184z M338.8,292.8
			c5.2,1.4,12.1,1.7,20.8,1.7c31.9,0,51.3-15.6,51.3-43c0-26-18-39.8-47.5-39.8c-11.8,0-20.1,1-24.6,2.1V292.8z"/>
	</g>
</g>
<g>
	<g class="st2">
		<path d="M466.7,376.6c9.7,5.9,28.1,12.1,43.3,12.1c18.7,0,27-7.6,27-18.7c0-11.4-6.9-17.3-27.7-24.6
			c-32.9-11.4-46.8-29.4-46.4-49.2c0-29.8,24.6-53,63.8-53c18.7,0,35,4.9,44.7,10l-8.3,30.1c-7.3-4.2-20.8-9.7-35.7-9.7
			c-15.2,0-23.6,7.3-23.6,17.7c0,10.7,8,15.9,29.5,23.6c30.5,11.1,44.7,26.7,45,51.6c0,30.5-23.9,53-68.6,53
			c-20.4,0-38.8-5.2-51.3-12.1L466.7,376.6z"/>
	</g>
	<g>
		<path class="st0" d="M466.7,375.3c9.7,5.9,28.1,12.1,43.3,12.1c18.7,0,27-7.6,27-18.7c0-11.4-6.9-17.3-27.7-24.6
			c-32.9-11.4-46.8-29.4-46.4-49.2c0-29.8,24.6-53,63.8-53c18.7,0,35,4.9,44.7,10l-8.3,30.1c-7.3-4.2-20.8-9.7-35.7-9.7
			c-15.2,0-23.6,7.3-23.6,17.7c0,10.7,8,15.9,29.5,23.6c30.5,11.1,44.7,26.7,45,51.6c0,30.5-23.9,53-68.6,53
			c-20.4,0-38.8-5.2-51.3-12.1L466.7,375.3z"/>
	</g>
</g>
</svg>
