<?xml version="1.0" encoding="utf-8"?>
<!-- Generator: Adobe Illustrator 23.0.0, SVG Export Plug-In . SVG Version: 6.00 Build 0)  -->
<svg version="1.1" id="Layer_1" xmlns="http://www.w3.org/2000/svg" xmlns:xlink="http://www.w3.org/1999/xlink" x="0px" y="0px"
	 viewBox="0 0 841.9 595.3" style="enable-background:new 0 0 841.9 595.3;" xml:space="preserve">
<style type="text/css">
	.st0{fill:#6E7DC0;}
	.st1{fill:#FFFFFF;stroke:#FFFFFF;stroke-miterlimit:10;}
	.st2{opacity:0.1;}
</style>
<rect x="162" y="42.7" class="st1" width="527.7" height="512.1"/>
<g>
	
		<image style="overflow:visible;opacity:0.4;" width="581" height="568" xlink:href="C81928D4.png"  transform="matrix(1 0 0 1 135.2288 14.0241)">
	</image>
	<g>
		<g>
			<path class="st0" d="M139.3,17.6v558.8h572V17.6H139.3z M665.8,532.1H186V63.1h479.8V532.1z"/>
		</g>
	</g>
</g>
<path class="st0" d="M289.3,176.5c15.8-2.9,37.6-5,67.4-5c32.2,0,55.9,6.8,71.3,19.7c14.3,11.8,23.7,30.8,23.7,53.4
	c0,22.9-7.2,41.9-20.8,54.8c-17.6,17.6-45.1,25.8-76.3,25.8c-8.2,0-15.8-0.4-21.5-1.4v91h-43.7V176.5z M333,289.1
	c5.4,1.4,12.5,1.8,21.5,1.8c33,0,53-16.1,53-44.4c0-26.9-18.6-41.2-49.1-41.2c-12.2,0-20.8,1.1-25.4,2.1V289.1z"/>
<path class="st0" d="M483.6,296.6c0-23.7-0.4-40.5-1.4-56.3h38.3l1.4,33.3h1.4c8.6-24.7,29-37.3,47.7-37.3c4.3,0,6.8,0.4,10.4,1.1
	V279c-3.6-0.7-7.5-1.4-12.9-1.4c-21.1,0-35.5,13.6-39.4,33.3c-0.7,3.9-1.4,8.6-1.4,13.6v90.3h-44.1V296.6z"/>
</svg>
