<?xml version="1.0" encoding="utf-8"?>
<!-- Generator: Adobe Illustrator 23.0.0, SVG Export Plug-In . SVG Version: 6.00 Build 0)  -->
<svg version="1.1" id="Layer_1" xmlns="http://www.w3.org/2000/svg" xmlns:xlink="http://www.w3.org/1999/xlink" x="0px" y="0px"
	 viewBox="0 0 841.9 595.3" style="enable-background:new 0 0 841.9 595.3;" xml:space="preserve">
<style type="text/css">
	.st0{fill:#6E7DC0;}
	.st1{fill:#FFFFFF;stroke:#FFFFFF;stroke-miterlimit:10;}
	.st2{opacity:0.1;}
	.st3{fill-rule:evenodd;clip-rule:evenodd;fill:#6E7DBC;}
</style>
<rect x="134.3" y="17.8" class="st0" width="568.1" height="558.2"/>
<rect x="183.6" y="67.1" class="st1" width="466.5" height="460.6"/>
<rect x="189.4" y="67.3" class="st1" width="466.5" height="460.6"/>
<g>
	<g class="st2">
		<path d="M291.3,345l-20.5,67.4H226l76.2-237.8h55.4l77.3,237.8h-46.6L366.8,345H291.3z M359.4,312.2l-18.7-58.6
			c-4.6-14.5-8.5-30.7-12-44.5H328c-3.5,13.8-7.1,30.3-11.3,44.5l-18.3,58.6H359.4z"/>
	</g>
	<g>
		<g>
			<path class="st0" d="M291.3,343.7L270.8,411H226l76.2-237.8h55.4L434.9,411h-46.6l-21.5-67.4H291.3z M359.4,310.9l-18.7-58.6
				c-4.6-14.5-8.5-30.7-12-44.5H328c-3.5,13.8-7.1,30.3-11.3,44.5l-18.3,58.6H359.4z"/>
		</g>
	</g>
</g>
<g>
	<g class="st2">
		<path d="M492.4,338.6c1.1,31.1,25.4,44.5,52.9,44.5c20.1,0,34.6-2.8,47.6-7.8l6.4,30c-14.8,6-35.3,10.9-60,10.9
			c-55.7,0-88.6-34.6-88.6-87.1c0-47.6,28.9-92.4,84-92.4c56.1,0,74.1,45.9,74.1,83.6c0,8.1-0.7,14.5-1.4,18.3H492.4z M567.9,308.3
			c0.4-15.9-6.7-42-35.6-42c-26.8,0-38.1,24.3-39.9,42H567.9z"/>
	</g>
	<g>
		<g>
			<path class="st0" d="M492.4,337.3c1.1,31.1,25.4,44.5,52.9,44.5c20.1,0,34.6-2.8,47.6-7.8l6.4,30c-14.8,6-35.3,10.9-60,10.9
				c-55.7,0-88.6-34.6-88.6-87.1c0-47.6,28.9-92.4,84-92.4c56.1,0,74.1,45.9,74.1,83.6c0,8.1-0.7,14.5-1.4,18.3H492.4z M567.9,307
				c0.4-15.9-6.7-42-35.6-42c-26.8,0-38.1,24.3-39.9,42H567.9z"/>
		</g>
	</g>
</g>
</svg>
