<svg id="Layer_1" data-name="Layer 1" xmlns="http://www.w3.org/2000/svg" viewBox="0 0 1551.05 566.29">
  <defs>
    <style>
      .cls-1 {
        fill: #6e7dc0;
      }

      .cls-2 {
        fill: #fff;
        stroke: #fff;
        stroke-miterlimit: 10;
      }

      .cls-3 {
        opacity: 0.1;
      }

      .cls-4 {
        fill: #6e7dbc;
        fill-rule: evenodd;
      }
    </style>
  </defs>
  <title>AI-08</title>
  <rect class="cls-1" width="570" height="560.1"/>
  <rect class="cls-2" x="49.5" y="49.4" width="468" height="462.1"/>
  <g>
    <g class="cls-3">
      <path d="M296.6,185.3c15.2-2.8,36.4-4.9,65.1-4.9,31.2,0,54.1,6.6,68.9,19.1,13.9,11.4,22.9,29.8,22.9,51.6,0,22.2-6.9,40.5-20.1,53-17,17-43.7,24.9-73.8,24.9-8,0-15.2-.3-20.8-1.4v88H296.5V185.3Zm42.2,108.8c5.2,1.4,12.1,1.7,20.8,1.7,31.9,0,51.3-15.6,51.3-43,0-26-18-39.8-47.5-39.8-11.8,0-20.1,1-24.6,2.1v79Z" transform="translate(-144.3 -17.2)"/>
    </g>
    <path class="cls-1" d="M296.6,184c15.2-2.8,36.4-4.9,65.1-4.9,31.2,0,54.1,6.6,68.9,19.1,13.9,11.4,22.9,29.8,22.9,51.6,0,22.2-6.9,40.5-20.1,53-17,17-43.7,24.9-73.8,24.9-8,0-15.2-.3-20.8-1.4v88H296.5V184Zm42.2,108.8c5.2,1.4,12.1,1.7,20.8,1.7,31.9,0,51.3-15.6,51.3-43,0-26-18-39.8-47.5-39.8-11.8,0-20.1,1-24.6,2.1v79Z" transform="translate(-144.3 -17.2)"/>
  </g>
  <g>
    <g class="cls-3">
      <path d="M466.7,376.6c9.7,5.9,28.1,12.1,43.3,12.1,18.7,0,27-7.6,27-18.7,0-11.4-6.9-17.3-27.7-24.6-32.9-11.4-46.8-29.4-46.4-49.2,0-29.8,24.6-53,63.8-53,18.7,0,35,4.9,44.7,10l-8.3,30.1c-7.3-4.2-20.8-9.7-35.7-9.7-15.2,0-23.6,7.3-23.6,17.7,0,10.7,8,15.9,29.5,23.6,30.5,11.1,44.7,26.7,45,51.6,0,30.5-23.9,53-68.6,53-20.4,0-38.8-5.2-51.3-12.1Z" transform="translate(-144.3 -17.2)"/>
    </g>
    <path class="cls-1" d="M466.7,375.3c9.7,5.9,28.1,12.1,43.3,12.1,18.7,0,27-7.6,27-18.7,0-11.4-6.9-17.3-27.7-24.6-32.9-11.4-46.8-29.4-46.4-49.2,0-29.8,24.6-53,63.8-53,18.7,0,35,4.9,44.7,10L563.1,282c-7.3-4.2-20.8-9.7-35.7-9.7-15.2,0-23.6,7.3-23.6,17.7,0,10.7,8,15.9,29.5,23.6,30.5,11.1,44.7,26.7,45,51.6,0,30.5-23.9,53-68.6,53-20.4,0-38.8-5.2-51.3-12.1Z" transform="translate(-144.3 -17.2)"/>
  </g>
  <g>
    <path class="cls-4" d="M1014.27,581.27h34c.17,0,.17,0,.17-.17V438.52c0-.17,0-.17-.17-.17h-34c-.16,0-.16,0-.16.17V581.1c0,.17,0,.17.16.17Z" transform="translate(-144.3 -17.2)"/>
    <path class="cls-4" d="M1282.36,465.46c-21.35,0-33.18,6.24-48.29,18.72,0,0-.17-.16-.17,0,0-1.15.5-8.7-1-8.7-9.36,0-23.33-.33-33.35,0v105.3c13,.16,34.33,0,34.33,0,.17-20.37.17-43.37.17-65.06,1.31-9.2,10.51-23,34.17-23,16.75-1.32,20.7,11.82,20.7,26.61v61.44h34.16c0-9.2,3.62-64.73-1.31-85.75-5.91-26.29-31.87-29.25-39.43-29.57Z" transform="translate(-144.3 -17.2)"/>
    <path class="cls-4" d="M868.39,428.82l35.16,9.53v39.43a71.08,71.08,0,0,1,38.28-11c35.64,0,64.72,26,64.72,57.66s-29.08,57.66-64.72,57.66a71,71,0,0,1-38.28-10.84v9.69H868.39V428.82Zm68.18,64.56c18.4,0,33.18,14.13,33.18,31.87,0,17.42-14.78,31.87-33.18,31.87-18.07,0-32.86-14.45-32.86-31.87,0-17.74,14.79-31.87,32.86-31.87Z" transform="translate(-144.3 -17.2)"/>
    <path class="cls-4" d="M1469.15,428.82l-35.49,9.53-.16,39.59a70.22,70.22,0,0,0-38.11-11.17c-35.65,0-64.73,26-64.73,57.66s29.08,57.66,64.73,57.66a71,71,0,0,0,37.78-10.68l-.17,9.53h36.15V428.82Zm-68.51,64.56c-18.07,0-32.85,14.13-32.85,31.87,0,17.42,14.78,31.87,32.85,31.87,18.4,0,33.19-14.45,33.19-31.87,0-17.74-14.79-31.87-33.19-31.87Z" transform="translate(-144.3 -17.2)"/>
    <path class="cls-4" d="M1609.11,531.66c-.33-40.74-16.27-68.83-70-66.86-42.39,1-64.07,22.83-63.25,62.75,3.45,39.1,25.13,50.6,61.11,55.85,31,1.15,52.9-9.52,60.29-24.31-8-5.75-18.07-10.84-26-16.42-8.7,12.15-16.42,18.56-29.57,16.59-23-3.45-26.77-14.46-27.59-27.44,30.72,0,64.39-.16,94.95-.16Zm-93.48-22.51c2-11.83,8.55-21.68,27.27-23,16.76,0,27.27,10.18,27.27,23Z" transform="translate(-144.3 -17.2)"/>
    <path class="cls-4" d="M1190.21,531.66c-.33-40.74-16.26-68.83-70-66.86-42.38,1-64.07,22.83-63.25,62.75,3.45,39.1,25.14,50.6,61.11,55.85,31.05,1.15,52.9-9.52,60.29-24.31-8.38-5.42-17.74-11.17-26-16.42-8.71,12.15-16.43,18.56-29.57,16.59-23-3.45-26.78-14.46-27.6-27.44,30.72,0,64.39-.16,95-.16Zm-93.47-22.51c2-11.83,8.54-21.68,27.26-23,16.76,0,27.27,10.18,27.27,23Z" transform="translate(-144.3 -17.2)"/>
    <path class="cls-4" d="M1621.92,580.94h32.53c.65,0,1,0,1-.33V516.05c7.72-15.28,20.7-18.56,39.92-17.74l-.16-29.4c-22.51.82-29.08,2.79-39.76,14.45v-7.88c0-.33-.33-.33-1-.33h-32.53c-.66,0-1,0-1,.33V580.61c0,.33.33.33,1,.33Z" transform="translate(-144.3 -17.2)"/>
    <path class="cls-4" d="M1245.47,155.9H1078.41c-30.07,2.3-25.3,42.38-3.12,42,20.53-.33,55,0,79.5,0-35.15,33.19-113.67,83.45-148,116.14-13.3,12.65-12.48,49.45,26.12,40.91,14.62-8.05,80.66-61.93,89.7-71.13,4.6,114.5,133.39,168.21,230.14,101,51.42-35.82,69.16-126.5,28.92-171.18-31.71-35.48-89.53-71-158.69-128.62-11-9-44-4.44-32.86,22.5,0,0,29.41,29.41,55.36,48.3Zm16.92,40.25c47.64,0,86.74,35.15,86.74,77.86,0,43-39.1,77.87-86.74,77.87-48,0-86.73-34.83-86.73-77.87,0-42.71,38.76-77.86,86.73-77.86Z" transform="translate(-144.3 -17.2)"/>
    <path class="cls-4" d="M1265.43,221.28c29.63,0,53.8,22.76,53.8,50.68s-24.17,50.68-53.8,50.68-53.8-22.77-53.8-50.68,24.17-50.68,53.8-50.68Z" transform="translate(-144.3 -17.2)"/>
  </g>
</svg>
