<?xml version="1.0" encoding="utf-8"?>
<!-- Generator: Adobe Illustrator 23.0.0, SVG Export Plug-In . SVG Version: 6.00 Build 0)  -->
<svg version="1.1" id="Layer_1" xmlns="http://www.w3.org/2000/svg" xmlns:xlink="http://www.w3.org/1999/xlink" x="0px" y="0px"
	 viewBox="0 0 841.9 595.3" style="enable-background:new 0 0 841.9 595.3;" xml:space="preserve">
<style type="text/css">
	.st0{fill:#6E7DC0;}
	.st1{fill:#FFFFFF;stroke:#FFFFFF;stroke-miterlimit:10;}
	.st2{opacity:0.1;}
</style>
<rect x="169.1" y="39.1" class="st1" width="528.2" height="512.6"/>
<g>
	
		<image style="overflow:visible;opacity:0.4;" width="581" height="568" xlink:href="84887974.png"  transform="matrix(1 0 0 1 142.1265 15.0241)">
	</image>
	<g>
		<g>
			<path class="st0" d="M146.4,17.9v559.4h572.5V17.9H146.4z M673.4,532.9H193.1V63.4h480.3V532.9z"/>
		</g>
	</g>
</g>
<g>
	<g class="st2">
		<path d="M293.9,343.1l-20.8,68.5h-45.6L305,169.9h56.3l78.6,241.8h-47.3l-21.9-68.5H293.9z M363.1,309.8l-19-59.6
			c-4.7-14.7-8.6-31.2-12.2-45.2h-0.7c-3.6,14-7.2,30.8-11.5,45.2l-18.7,59.6H363.1z"/>
	</g>
	<g>
		<g>
			<path class="st0" d="M293.9,341.8l-20.8,68.5h-45.6L305,168.6h56.3l78.6,241.8h-47.3l-21.9-68.5H293.9z M363.1,308.5l-19-59.6
				c-4.7-14.7-8.6-31.2-12.2-45.2h-0.7c-3.6,14-7.2,30.8-11.5,45.2l-18.7,59.6H363.1z"/>
		</g>
	</g>
</g>
<g>
	<g class="st2">
		<path d="M623.2,359.3c0,20.8,0.7,38,1.4,52.4h-38.7l-2.2-26.5H583c-7.5,12.6-24.8,30.5-56,30.5c-31.9,0-61-19-61-76V237h44.1V332
			c0,29.1,9.3,47.7,32.6,47.7c17.6,0,29.1-12.5,33.7-23.7c1.4-4,2.5-8.6,2.5-13.6V237h44.1V359.3z"/>
	</g>
	<g>
		<g>
			<path class="st0" d="M623.2,358c0,20.8,0.7,38,1.4,52.4h-38.7l-2.2-26.5H583c-7.5,12.6-24.8,30.5-56,30.5c-31.9,0-61-19-61-76
				V235.6h44.1v95.1c0,29.1,9.3,47.7,32.6,47.7c17.6,0,29.1-12.5,33.7-23.7c1.4-4,2.5-8.6,2.5-13.6V235.6h44.1V358z"/>
		</g>
	</g>
</g>
</svg>
