<?xml version="1.0" encoding="utf-8"?>
<!-- Generator: Adobe Illustrator 23.0.0, SVG Export Plug-In . SVG Version: 6.00 Build 0)  -->
<svg version="1.1" id="Layer_1" xmlns="http://www.w3.org/2000/svg" xmlns:xlink="http://www.w3.org/1999/xlink" x="0px" y="0px"
	 viewBox="0 0 841.9 595.3" style="enable-background:new 0 0 841.9 595.3;" xml:space="preserve">
<style type="text/css">
	.st0{fill:#6E7DC0;}
	.st1{fill:#FFFFFF;stroke:#FFFFFF;stroke-miterlimit:10;}
	.st2{opacity:0.1;}
	.st3{fill-rule:evenodd;clip-rule:evenodd;fill:#6E7DBC;}
</style>
<rect x="144.3" y="17.2" class="st0" width="570" height="560.1"/>
<rect x="193.8" y="66.6" class="st1" width="468" height="462.1"/>
<g>
	<g class="st2">
		<path d="M296.6,185.3c15.2-2.8,36.4-4.9,65.1-4.9c31.2,0,54.1,6.6,68.9,19.1c13.9,11.4,22.9,29.8,22.9,51.6
			c0,22.2-6.9,40.5-20.1,53c-17,17-43.7,24.9-73.8,24.9c-8,0-15.2-0.3-20.8-1.4v88h-42.3V185.3H296.6z M338.8,294.1
			c5.2,1.4,12.1,1.7,20.8,1.7c31.9,0,51.3-15.6,51.3-43c0-26-18-39.8-47.5-39.8c-11.8,0-20.1,1-24.6,2.1L338.8,294.1L338.8,294.1z"
			/>
	</g>
	<g>
		<path class="st0" d="M296.6,184c15.2-2.8,36.4-4.9,65.1-4.9c31.2,0,54.1,6.6,68.9,19.1c13.9,11.4,22.9,29.8,22.9,51.6
			c0,22.2-6.9,40.5-20.1,53c-17,17-43.7,24.9-73.8,24.9c-8,0-15.2-0.3-20.8-1.4v88h-42.3V184H296.6z M338.8,292.8
			c5.2,1.4,12.1,1.7,20.8,1.7c31.9,0,51.3-15.6,51.3-43c0-26-18-39.8-47.5-39.8c-11.8,0-20.1,1-24.6,2.1L338.8,292.8L338.8,292.8z"
			/>
	</g>
</g>
<g>
	<g class="st2">
		<path d="M466.7,376.6c9.7,5.9,28.1,12.1,43.3,12.1c18.7,0,27-7.6,27-18.7c0-11.4-6.9-17.3-27.7-24.6
			c-32.9-11.4-46.8-29.4-46.4-49.2c0-29.8,24.6-53,63.8-53c18.7,0,35,4.9,44.7,10l-8.3,30.1c-7.3-4.2-20.8-9.7-35.7-9.7
			c-15.2,0-23.6,7.3-23.6,17.7c0,10.7,8,15.9,29.5,23.6c30.5,11.1,44.7,26.7,45,51.6c0,30.5-23.9,53-68.6,53
			c-20.4,0-38.8-5.2-51.3-12.1L466.7,376.6z"/>
	</g>
	<g>
		<path class="st0" d="M466.7,375.3c9.7,5.9,28.1,12.1,43.3,12.1c18.7,0,27-7.6,27-18.7c0-11.4-6.9-17.3-27.7-24.6
			c-32.9-11.4-46.8-29.4-46.4-49.2c0-29.8,24.6-53,63.8-53c18.7,0,35,4.9,44.7,10l-8.3,30.1c-7.3-4.2-20.8-9.7-35.7-9.7
			c-15.2,0-23.6,7.3-23.6,17.7c0,10.7,8,15.9,29.5,23.6c30.5,11.1,44.7,26.7,45,51.6c0,30.5-23.9,53-68.6,53
			c-20.4,0-38.8-5.2-51.3-12.1L466.7,375.3z"/>
	</g>
</g>
<g>
	<path class="st3" d="M1014.3,581.3h34c0.2,0,0.2,0,0.2-0.2V438.5c0-0.2,0-0.2-0.2-0.2h-34c-0.2,0-0.2,0-0.2,0.2v142.6
		C1014.1,581.3,1014.1,581.3,1014.3,581.3L1014.3,581.3z"/>
	<path class="st3" d="M1282.4,465.5c-21.4,0-33.2,6.2-48.3,18.7c0,0-0.2-0.2-0.2,0c0-1.2,0.5-8.7-1-8.7c-9.4,0-23.3-0.3-33.3,0
		v105.3c13,0.2,34.3,0,34.3,0c0.2-20.4,0.2-43.4,0.2-65.1c1.3-9.2,10.5-23,34.2-23c16.8-1.3,20.7,11.8,20.7,26.6
		c0,16.4,0,40.1,0,61.4h34.2c0-9.2,3.6-64.7-1.3-85.7C1315.9,468.7,1289.9,465.8,1282.4,465.5L1282.4,465.5z"/>
	<path class="st3" d="M868.4,428.8l35.2,9.5v39.4c10.8-6.9,24-11,38.3-11c35.6,0,64.7,26,64.7,57.7c0,31.7-29.1,57.7-64.7,57.7
		c-14.3,0-27.4-3.9-38.3-10.8v9.7h-35.2V428.8L868.4,428.8z M936.6,493.4c18.4,0,33.2,14.1,33.2,31.9c0,17.4-14.8,31.9-33.2,31.9
		c-18.1,0-32.9-14.5-32.9-31.9C903.7,507.5,918.5,493.4,936.6,493.4L936.6,493.4z"/>
	<path class="st3" d="M1469.1,428.8l-35.5,9.5l-0.2,39.6c-10.7-6.9-23.8-11.2-38.1-11.2c-35.6,0-64.7,26-64.7,57.7
		c0,31.7,29.1,57.7,64.7,57.7c14,0,27.1-3.9,37.8-10.7l-0.2,9.5h36.1V428.8L1469.1,428.8z M1400.6,493.4
		c-18.1,0-32.9,14.1-32.9,31.9c0,17.4,14.8,31.9,32.9,31.9c18.4,0,33.2-14.5,33.2-31.9C1433.8,507.5,1419,493.4,1400.6,493.4
		L1400.6,493.4z"/>
	<path class="st3" d="M1609.1,531.7c-0.3-40.7-16.3-68.8-70-66.9c-42.4,1-64.1,22.8-63.2,62.8c3.4,39.1,25.1,50.6,61.1,55.9
		c31,1.2,52.9-9.5,60.3-24.3c-8-5.7-18.1-10.8-26-16.4c-8.7,12.2-16.4,18.6-29.6,16.6c-23-3.4-26.8-14.5-27.6-27.4
		C1544.9,531.8,1578.6,531.7,1609.1,531.7L1609.1,531.7z M1515.6,509.2c2-11.8,8.5-21.7,27.3-23c16.8,0,27.3,10.2,27.3,23
		C1570.2,509.2,1514.3,509.2,1515.6,509.2L1515.6,509.2z"/>
	<path class="st3" d="M1190.2,531.7c-0.3-40.7-16.3-68.8-70-66.9c-42.4,1-64.1,22.8-63.2,62.8c3.5,39.1,25.1,50.6,61.1,55.9
		c31,1.2,52.9-9.5,60.3-24.3c-8.4-5.4-17.7-11.2-26-16.4c-8.7,12.2-16.4,18.6-29.6,16.6c-23-3.4-26.8-14.5-27.6-27.4
		C1126,531.8,1159.7,531.7,1190.2,531.7L1190.2,531.7z M1096.7,509.2c2-11.8,8.5-21.7,27.3-23c16.8,0,27.3,10.2,27.3,23
		C1151.3,509.2,1095.4,509.2,1096.7,509.2L1096.7,509.2z"/>
	<path class="st3" d="M1621.9,580.9h32.5c0.7,0,1,0,1-0.3v-64.6c7.7-15.3,20.7-18.6,39.9-17.7l-0.2-29.4
		c-22.5,0.8-29.1,2.8-39.8,14.5v-7.9c0-0.3-0.3-0.3-1-0.3h-32.5c-0.7,0-1,0-1,0.3v105.1C1620.9,580.9,1621.3,580.9,1621.9,580.9
		L1621.9,580.9z"/>
	<path class="st3" d="M1245.5,155.9h-167.1c-30.1,2.3-25.3,42.4-3.1,42.1c20.5-0.3,55,0,79.5,0c-35.2,33.2-113.7,83.5-148,116.1
		c-13.3,12.6-12.5,49.4,26.1,40.9c14.6-8,80.7-61.9,89.7-71.1c4.6,114.5,133.4,168.2,230.1,101c51.4-35.8,69.2-126.5,28.9-171.2
		c-31.7-35.5-89.5-71-158.7-128.6c-11-9-44-4.4-32.9,22.5C1190.1,107.6,1219.5,137,1245.5,155.9L1245.5,155.9z M1262.4,196.1
		c47.6,0,86.7,35.2,86.7,77.9c0,43-39.1,77.9-86.7,77.9c-48,0-86.7-34.8-86.7-77.9C1175.7,231.3,1214.4,196.1,1262.4,196.1
		L1262.4,196.1z"/>
	<path class="st3" d="M1265.4,221.3c29.6,0,53.8,22.8,53.8,50.7c0,27.9-24.2,50.7-53.8,50.7s-53.8-22.8-53.8-50.7
		C1211.6,244,1235.8,221.3,1265.4,221.3L1265.4,221.3z"/>
</g>
</svg>
