<?xml version="1.0" encoding="utf-8"?>
<!-- Generator: Adobe Illustrator 23.0.0, SVG Export Plug-In . SVG Version: 6.00 Build 0)  -->
<svg version="1.1" id="Layer_1" xmlns="http://www.w3.org/2000/svg" xmlns:xlink="http://www.w3.org/1999/xlink" x="0px" y="0px"
	 viewBox="0 0 841.9 595.3" style="enable-background:new 0 0 841.9 595.3;" xml:space="preserve">
<style type="text/css">
	.st0{fill:#FFFFFF;}
	.st1{fill:#FFFFFF;stroke:#FFFFFF;stroke-miterlimit:10;}
	.st2{opacity:0.1;}
	.st3{fill-rule:evenodd;clip-rule:evenodd;fill:#FFFFFF;}
</style>
<g>
	<path class="st3" d="M154.1,548.7H188c0.2,0,0.2,0,0.2-0.2V406.4c0-0.2,0-0.2-0.2-0.2h-33.9c-0.2,0-0.2,0-0.2,0.2v142.2
		C154,548.7,154,548.7,154.1,548.7L154.1,548.7z"/>
	<path class="st3" d="M421.4,433.3c-21.3,0-33.1,6.2-48.2,18.7c0,0-0.2-0.2-0.2,0c0-1.1,0.5-8.7-1-8.7c-9.3,0-23.3-0.3-33.2,0v105
		c12.9,0.2,34.2,0,34.2,0c0.2-20.3,0.2-43.2,0.2-64.9c1.3-9.2,10.5-22.9,34.1-22.9C424,459.2,428,472.3,428,487c0,16.4,0,40,0,61.3
		H462c0-9.2,3.6-64.5-1.3-85.5C454.8,436.6,429,433.6,421.4,433.3L421.4,433.3z"/>
	<path class="st3" d="M8.7,396.8l35.1,9.5v39.3c10.8-6.9,23.9-11,38.2-11c35.5,0,64.5,25.9,64.5,57.5c0,31.6-29,57.5-64.5,57.5
		c-14.2,0-27.4-3.9-38.2-10.8v9.7H8.7V396.8L8.7,396.8z M76.7,461.1c18.3,0,33.1,14.1,33.1,31.8c0,17.4-14.7,31.8-33.1,31.8
		c-18,0-32.8-14.4-32.8-31.8C43.9,475.2,58.6,461.1,76.7,461.1L76.7,461.1z"/>
	<path class="st3" d="M607.6,396.8l-35.4,9.5l-0.2,39.5c-10.6-6.9-23.7-11.1-38-11.1c-35.5,0-64.5,25.9-64.5,57.5
		c0,31.6,29,57.5,64.5,57.5c13.9,0,27-3.9,37.7-10.6l-0.2,9.5h36V396.8L607.6,396.8z M539.3,461.1c-18,0-32.8,14.1-32.8,31.8
		c0,17.4,14.7,31.8,32.8,31.8c18.3,0,33.1-14.4,33.1-31.8C572.4,475.2,557.7,461.1,539.3,461.1L539.3,461.1z"/>
	<path class="st3" d="M747.2,499.3c-0.3-40.6-16.2-68.6-69.8-66.7c-42.3,1-63.9,22.8-63.1,62.6c3.4,39,25.1,50.4,60.9,55.7
		c31,1.1,52.7-9.5,60.1-24.2c-8-5.7-18-10.8-25.9-16.4c-8.7,12.1-16.4,18.5-29.5,16.5c-22.9-3.4-26.7-14.4-27.5-27.3
		C683.1,499.4,716.7,499.3,747.2,499.3L747.2,499.3z M654,476.8c2-11.8,8.5-21.6,27.2-22.9c16.7,0,27.2,10.2,27.2,22.9
		C708.4,476.8,652.7,476.8,654,476.8L654,476.8z"/>
	<path class="st3" d="M329.5,499.3c-0.3-40.6-16.2-68.6-69.8-66.7c-42.3,1-63.9,22.8-63.1,62.6c3.4,39,25.1,50.4,60.9,55.7
		c31,1.1,52.7-9.5,60.1-24.2c-8.4-5.4-17.7-11.1-25.9-16.4c-8.7,12.1-16.4,18.5-29.5,16.5c-22.9-3.4-26.7-14.4-27.5-27.3
		C265.5,499.4,299.1,499.3,329.5,499.3L329.5,499.3z M236.3,476.8c2-11.8,8.5-21.6,27.2-22.9c16.7,0,27.2,10.2,27.2,22.9
		C290.7,476.8,235,476.8,236.3,476.8L236.3,476.8z"/>
	<path class="st3" d="M759.9,548.4h32.4c0.7,0,1,0,1-0.3v-64.4c7.7-15.2,20.6-18.5,39.8-17.7l-0.2-29.3c-22.4,0.8-29,2.8-39.6,14.4
		v-7.9c0-0.3-0.3-0.3-1-0.3h-32.4c-0.7,0-1,0-1,0.3v104.8C759,548.4,759.3,548.4,759.9,548.4L759.9,548.4z"/>
	<path class="st3" d="M384.6,124.6H218.1c-30,2.3-25.2,42.3-3.1,41.9c20.5-0.3,54.9,0,79.3,0c-35.1,33.1-113.3,83.2-147.6,115.8
		c-13.3,12.6-12.4,49.3,26,40.8c14.6-8,80.4-61.7,89.4-70.9c4.6,114.2,133,167.7,229.5,100.7c51.3-35.7,69-126.1,28.8-170.7
		c-31.6-35.4-89.3-70.8-158.2-128.2c-11-9-43.9-4.4-32.8,22.4C329.4,76.5,358.8,105.8,384.6,124.6L384.6,124.6z M401.5,164.8
		c47.5,0,86.5,35,86.5,77.6c0,42.9-39,77.6-86.5,77.6c-47.8,0-86.5-34.7-86.5-77.6C315,199.8,353.7,164.8,401.5,164.8L401.5,164.8z"
		/>
	<path class="st3" d="M404.5,189.8c29.5,0,53.6,22.7,53.6,50.5c0,27.8-24.1,50.5-53.6,50.5c-29.5,0-53.6-22.7-53.6-50.5
		C350.9,212.5,375,189.8,404.5,189.8L404.5,189.8z"/>
</g>
</svg>
