<?xml version="1.0" encoding="utf-8"?>
<!-- Generator: Adobe Illustrator 23.0.0, SVG Export Plug-In . SVG Version: 6.00 Build 0)  -->
<svg version="1.1" id="Layer_1" xmlns="http://www.w3.org/2000/svg" xmlns:xlink="http://www.w3.org/1999/xlink" x="0px" y="0px"
	 viewBox="0 0 841.9 595.3" style="enable-background:new 0 0 841.9 595.3;" xml:space="preserve">
<style type="text/css">
	.st0{fill:#6E7DC0;}
	.st1{fill:#FFFFFF;stroke:#FFFFFF;stroke-miterlimit:10;}
	.st2{opacity:0.1;}
	.st3{fill-rule:evenodd;clip-rule:evenodd;fill:#6E7DBC;}
</style>
<rect x="-4244.9" y="16.8" class="st0" width="544.9" height="555.7"/>
<rect x="-4197.6" y="65.9" class="st1" width="447.5" height="458.5"/>
<g>
	<g class="st2">
		<path d="M-4048.7,354.3l-19.2,65.7h-42.1l71.5-231.7h52l72.5,231.7h-43.7l-20.2-65.7H-4048.7z M-3984.8,322.3l-17.6-57.1
			c-4.3-14.1-8-29.9-11.3-43.3h-0.7c-3.3,13.4-6.6,29.6-10.6,43.3l-17.2,57.1H-3984.8z"/>
	</g>
	<g>
		<path class="st0" d="M-4048.7,353l-19.2,65.7h-42.1l71.5-231.7h52l72.5,231.7h-43.7l-20.2-65.7H-4048.7z M-3984.8,321l-17.6-57.1
			c-4.3-14.1-8-29.9-11.3-43.3h-0.7c-3.3,13.4-6.6,29.6-10.6,43.3l-17.2,57.1H-3984.8z"/>
	</g>
</g>
<g>
	<g class="st2">
		<path d="M-3854.6,205.8c0,12.7-8.9,22.7-23.2,22.7c-13.6,0-22.5-10-22.5-22.7c0-13.1,9.3-23,22.9-23
			C-3863.5,182.7-3854.9,192.7-3854.6,205.8z M-3898,419.9V252.5h41.1v167.4H-3898z"/>
	</g>
	<g>
		<path class="st0" d="M-3854.6,204.5c0,12.7-8.9,22.7-23.2,22.7c-13.6,0-22.5-10-22.5-22.7c0-13.1,9.3-23,22.9-23
			C-3863.5,181.4-3854.9,191.4-3854.6,204.5z M-3898,418.6V251.2h41.1v167.4H-3898z"/>
	</g>
</g>
<rect x="-3346.5" y="39.1" class="st1" width="528.2" height="512.6"/>
<g>
	
		<image style="overflow:visible;opacity:0.4;" width="581" height="568" xlink:href="BABAD354.png"  transform="matrix(1 0 0 1 -3373.4641 15.0241)">
	</image>
	<g>
		<g>
			<path class="st0" d="M-3369.2,17.9v559.4h572.5V17.9H-3369.2z M-2842.2,532.9h-480.3V63.4h480.3V532.9z"/>
		</g>
	</g>
</g>
<g>
	<g class="st2">
		<path d="M-3221.7,343.1l-20.8,68.5h-45.6l77.5-241.8h56.3l78.6,241.8h-47.3l-21.9-68.5H-3221.7z M-3152.4,309.8l-19-59.6
			c-4.7-14.7-8.6-31.2-12.2-45.2h-0.7c-3.6,14-7.2,30.8-11.5,45.2l-18.7,59.6H-3152.4z"/>
	</g>
	<g>
		<g>
			<path class="st0" d="M-3221.7,341.8l-20.8,68.5h-45.6l77.5-241.8h56.3l78.6,241.8h-47.3l-21.9-68.5H-3221.7z M-3152.4,308.5
				l-19-59.6c-4.7-14.7-8.6-31.2-12.2-45.2h-0.7c-3.6,14-7.2,30.8-11.5,45.2l-18.7,59.6H-3152.4z"/>
		</g>
	</g>
</g>
<g>
	<g class="st2">
		<path d="M-2892.4,359.3c0,20.8,0.7,38,1.4,52.4h-38.7l-2.2-26.5h-0.7c-7.5,12.6-24.8,30.5-56,30.5c-31.9,0-61-19-61-76V237h44.1
			V332c0,29.1,9.3,47.7,32.6,47.7c17.6,0,29.1-12.5,33.7-23.7c1.4-4,2.5-8.6,2.5-13.6V237h44.1V359.3z"/>
	</g>
	<g>
		<g>
			<path class="st0" d="M-2892.4,358c0,20.8,0.7,38,1.4,52.4h-38.7l-2.2-26.5h-0.7c-7.5,12.6-24.8,30.5-56,30.5c-31.9,0-61-19-61-76
				V235.6h44.1v95.1c0,29.1,9.3,47.7,32.6,47.7c17.6,0,29.1-12.5,33.7-23.7c1.4-4,2.5-8.6,2.5-13.6V235.6h44.1V358z"/>
		</g>
	</g>
</g>
<rect x="-2474.7" y="42.7" class="st1" width="527.7" height="512.1"/>
<g>
	
		<image style="overflow:visible;opacity:0.4;" width="581" height="568" xlink:href="BABAD355.png"  transform="matrix(1 0 0 1 -2501.4641 14.0241)">
	</image>
	<g>
		<g>
			<path class="st0" d="M-2497.4,17.6v558.8h572V17.6H-2497.4z M-1970.9,532.1h-479.8V63.1h479.8V532.1z"/>
		</g>
	</g>
</g>
<path class="st0" d="M-2347.4,176.5c15.8-2.9,37.6-5,67.4-5c32.2,0,55.9,6.8,71.3,19.7c14.3,11.8,23.7,30.8,23.7,53.4
	c0,22.9-7.2,41.9-20.8,54.8c-17.6,17.6-45.1,25.8-76.3,25.8c-8.2,0-15.8-0.4-21.5-1.4v91h-43.7V176.5z M-2303.7,289.1
	c5.4,1.4,12.5,1.8,21.5,1.8c33,0,53-16.1,53-44.4c0-26.9-18.6-41.2-49.1-41.2c-12.2,0-20.8,1.1-25.4,2.1V289.1z"/>
<path class="st0" d="M-2153.1,296.6c0-23.7-0.4-40.5-1.4-56.3h38.3l1.4,33.3h1.4c8.6-24.7,29-37.3,47.7-37.3c4.3,0,6.8,0.4,10.4,1.1
	V279c-3.6-0.7-7.5-1.4-12.9-1.4c-21.1,0-35.5,13.6-39.4,33.3c-0.7,3.9-1.4,8.6-1.4,13.6v90.3h-44.1V296.6z"/>
<g>
	<path class="st3" d="M-1603.7,548.7h33.9c0.2,0,0.2,0,0.2-0.2V406.4c0-0.2,0-0.2-0.2-0.2h-33.9c-0.2,0-0.2,0-0.2,0.2v142.2
		C-1603.8,548.7-1603.8,548.7-1603.7,548.7L-1603.7,548.7z"/>
	<path class="st3" d="M-1336.4,433.3c-21.3,0-33.1,6.2-48.2,18.7c0,0-0.2-0.2-0.2,0c0-1.1,0.5-8.7-1-8.7c-9.3,0-23.3-0.3-33.2,0v105
		c12.9,0.2,34.2,0,34.2,0c0.2-20.3,0.2-43.2,0.2-64.9c1.3-9.2,10.5-22.9,34.1-22.9c16.7-1.3,20.6,11.8,20.6,26.5c0,16.4,0,40,0,61.3
		h34.1c0-9.2,3.6-64.5-1.3-85.5C-1303,436.6-1328.8,433.6-1336.4,433.3L-1336.4,433.3z"/>
	<path class="st3" d="M-1749.1,396.8l35.1,9.5v39.3c10.8-6.9,23.9-11,38.2-11c35.5,0,64.5,25.9,64.5,57.5c0,31.6-29,57.5-64.5,57.5
		c-14.2,0-27.4-3.9-38.2-10.8v9.7h-35.1V396.8L-1749.1,396.8z M-1681.1,461.1c18.3,0,33.1,14.1,33.1,31.8
		c0,17.4-14.7,31.8-33.1,31.8c-18,0-32.8-14.4-32.8-31.8C-1713.9,475.2-1699.2,461.1-1681.1,461.1L-1681.1,461.1z"/>
	<path class="st3" d="M-1150.2,396.8l-35.4,9.5l-0.2,39.5c-10.6-6.9-23.7-11.1-38-11.1c-35.5,0-64.5,25.9-64.5,57.5
		c0,31.6,29,57.5,64.5,57.5c13.9,0,27-3.9,37.7-10.6l-0.2,9.5h36V396.8L-1150.2,396.8z M-1218.5,461.1c-18,0-32.8,14.1-32.8,31.8
		c0,17.4,14.7,31.8,32.8,31.8c18.3,0,33.1-14.4,33.1-31.8C-1185.4,475.2-1200.1,461.1-1218.5,461.1L-1218.5,461.1z"/>
	<path class="st3" d="M-1010.6,499.3c-0.3-40.6-16.2-68.6-69.8-66.7c-42.3,1-63.9,22.8-63.1,62.6c3.4,39,25.1,50.4,60.9,55.7
		c31,1.1,52.7-9.5,60.1-24.2c-8-5.7-18-10.8-25.9-16.4c-8.7,12.1-16.4,18.5-29.5,16.5c-22.9-3.4-26.7-14.4-27.5-27.3
		C-1074.7,499.4-1041.1,499.3-1010.6,499.3L-1010.6,499.3z M-1103.8,476.8c2-11.8,8.5-21.6,27.2-22.9c16.7,0,27.2,10.2,27.2,22.9
		C-1049.4,476.8-1105.1,476.8-1103.8,476.8L-1103.8,476.8z"/>
	<path class="st3" d="M-1428.3,499.3c-0.3-40.6-16.2-68.6-69.8-66.7c-42.3,1-63.9,22.8-63.1,62.6c3.4,39,25.1,50.4,60.9,55.7
		c31,1.1,52.7-9.5,60.1-24.2c-8.4-5.4-17.7-11.1-25.9-16.4c-8.7,12.1-16.4,18.5-29.5,16.5c-22.9-3.4-26.7-14.4-27.5-27.3
		C-1492.3,499.4-1458.7,499.3-1428.3,499.3L-1428.3,499.3z M-1521.5,476.8c2-11.8,8.5-21.6,27.2-22.9c16.7,0,27.2,10.2,27.2,22.9
		C-1467.1,476.8-1522.8,476.8-1521.5,476.8L-1521.5,476.8z"/>
	<path class="st3" d="M-997.8,548.4h32.4c0.7,0,1,0,1-0.3v-64.4c7.7-15.2,20.6-18.5,39.8-17.7l-0.2-29.3c-22.4,0.8-29,2.8-39.6,14.4
		v-7.9c0-0.3-0.3-0.3-1-0.3h-32.4c-0.7,0-1,0-1,0.3v104.8C-998.8,548.4-998.5,548.4-997.8,548.4L-997.8,548.4z"/>
	<path class="st3" d="M-1373.2,124.6h-166.6c-30,2.3-25.2,42.3-3.1,41.9c20.5-0.3,54.9,0,79.3,0c-35.1,33.1-113.3,83.2-147.6,115.8
		c-13.3,12.6-12.4,49.3,26,40.8c14.6-8,80.4-61.7,89.4-70.9c4.6,114.2,133,167.7,229.5,100.7c51.3-35.7,69-126.1,28.8-170.7
		c-31.6-35.4-89.3-70.8-158.2-128.2c-11-9-43.9-4.4-32.8,22.4C-1428.4,76.5-1399,105.8-1373.2,124.6L-1373.2,124.6z M-1356.3,164.8
		c47.5,0,86.5,35,86.5,77.6c0,42.9-39,77.6-86.5,77.6c-47.8,0-86.5-34.7-86.5-77.6C-1442.8,199.8-1404.1,164.8-1356.3,164.8
		L-1356.3,164.8z"/>
	<path class="st3" d="M-1353.3,189.8c29.5,0,53.6,22.7,53.6,50.5c0,27.8-24.1,50.5-53.6,50.5s-53.6-22.7-53.6-50.5
		C-1406.9,212.5-1382.8,189.8-1353.3,189.8L-1353.3,189.8z"/>
</g>
<rect x="-744.6" y="17.8" class="st0" width="568.1" height="558.2"/>
<rect x="-695.3" y="67.1" class="st1" width="466.5" height="460.6"/>
<rect x="-689.5" y="67.3" class="st1" width="466.5" height="460.6"/>
<g>
	<g class="st2">
		<path d="M-587.6,345l-20.5,67.4h-44.8l76.2-237.8h55.4l77.3,237.8h-46.6l-21.5-67.4H-587.6z M-519.5,312.2l-18.7-58.6
			c-4.6-14.5-8.5-30.7-12-44.5h-0.7c-3.5,13.8-7.1,30.3-11.3,44.5l-18.3,58.6H-519.5z"/>
	</g>
	<g>
		<g>
			<path class="st0" d="M-587.6,343.7l-20.5,67.4h-44.8l76.2-237.8h55.4L-444,411h-46.6l-21.5-67.4H-587.6z M-519.5,310.9
				l-18.7-58.6c-4.6-14.5-8.5-30.7-12-44.5h-0.7c-3.5,13.8-7.1,30.3-11.3,44.5l-18.3,58.6H-519.5z"/>
		</g>
	</g>
</g>
<g>
	<g class="st2">
		<path d="M-386.5,338.6c1.1,31.1,25.4,44.5,52.9,44.5c20.1,0,34.6-2.8,47.6-7.8l6.4,30c-14.8,6-35.3,10.9-60,10.9
			c-55.7,0-88.6-34.6-88.6-87.1c0-47.6,28.9-92.4,84-92.4c56.1,0,74.1,45.9,74.1,83.6c0,8.1-0.7,14.5-1.4,18.3H-386.5z M-311,308.3
			c0.4-15.9-6.7-42-35.6-42c-26.8,0-38.1,24.3-39.9,42H-311z"/>
	</g>
	<g>
		<g>
			<path class="st0" d="M-386.5,337.3c1.1,31.1,25.4,44.5,52.9,44.5c20.1,0,34.6-2.8,47.6-7.8l6.4,30c-14.8,6-35.3,10.9-60,10.9
				c-55.7,0-88.6-34.6-88.6-87.1c0-47.6,28.9-92.4,84-92.4c56.1,0,74.1,45.9,74.1,83.6c0,8.1-0.7,14.5-1.4,18.3H-386.5z M-311,307
				c0.4-15.9-6.7-42-35.6-42c-26.8,0-38.1,24.3-39.9,42H-311z"/>
		</g>
	</g>
</g>
<rect x="144.3" y="17.2" class="st0" width="570" height="560.1"/>
<rect x="193.8" y="66.6" class="st1" width="468" height="462.1"/>
<g>
	<g class="st2">
		<path d="M296.6,185.3c15.2-2.8,36.4-4.9,65.1-4.9c31.2,0,54.1,6.6,68.9,19.1c13.9,11.4,22.9,29.8,22.9,51.6
			c0,22.2-6.9,40.5-20.1,53c-17,17-43.7,24.9-73.8,24.9c-8,0-15.2-0.3-20.8-1.4v88h-42.3V185.3z M338.8,294.1
			c5.2,1.4,12.1,1.7,20.8,1.7c31.9,0,51.3-15.6,51.3-43c0-26-18-39.8-47.5-39.8c-11.8,0-20.1,1-24.6,2.1V294.1z"/>
	</g>
	<g>
		<path class="st0" d="M296.6,184c15.2-2.8,36.4-4.9,65.1-4.9c31.2,0,54.1,6.6,68.9,19.1c13.9,11.4,22.9,29.8,22.9,51.6
			c0,22.2-6.9,40.5-20.1,53c-17,17-43.7,24.9-73.8,24.9c-8,0-15.2-0.3-20.8-1.4v88h-42.3V184z M338.8,292.8
			c5.2,1.4,12.1,1.7,20.8,1.7c31.9,0,51.3-15.6,51.3-43c0-26-18-39.8-47.5-39.8c-11.8,0-20.1,1-24.6,2.1V292.8z"/>
	</g>
</g>
<g>
	<g class="st2">
		<path d="M466.7,376.6c9.7,5.9,28.1,12.1,43.3,12.1c18.7,0,27-7.6,27-18.7c0-11.4-6.9-17.3-27.7-24.6
			c-32.9-11.4-46.8-29.4-46.4-49.2c0-29.8,24.6-53,63.8-53c18.7,0,35,4.9,44.7,10l-8.3,30.1c-7.3-4.2-20.8-9.7-35.7-9.7
			c-15.2,0-23.6,7.3-23.6,17.7c0,10.7,8,15.9,29.5,23.6c30.5,11.1,44.7,26.7,45,51.6c0,30.5-23.9,53-68.6,53
			c-20.4,0-38.8-5.2-51.3-12.1L466.7,376.6z"/>
	</g>
	<g>
		<path class="st0" d="M466.7,375.3c9.7,5.9,28.1,12.1,43.3,12.1c18.7,0,27-7.6,27-18.7c0-11.4-6.9-17.3-27.7-24.6
			c-32.9-11.4-46.8-29.4-46.4-49.2c0-29.8,24.6-53,63.8-53c18.7,0,35,4.9,44.7,10l-8.3,30.1c-7.3-4.2-20.8-9.7-35.7-9.7
			c-15.2,0-23.6,7.3-23.6,17.7c0,10.7,8,15.9,29.5,23.6c30.5,11.1,44.7,26.7,45,51.6c0,30.5-23.9,53-68.6,53
			c-20.4,0-38.8-5.2-51.3-12.1L466.7,375.3z"/>
	</g>
</g>
</svg>
