<?xml version="1.0" encoding="utf-8"?>
<!-- Generator: Adobe Illustrator 23.0.0, SVG Export Plug-In . SVG Version: 6.00 Build 0)  -->
<svg version="1.1" id="Layer_1" xmlns="http://www.w3.org/2000/svg" xmlns:xlink="http://www.w3.org/1999/xlink" x="0px" y="0px"
	 viewBox="0 0 841.9 595.3" style="enable-background:new 0 0 841.9 595.3;" xml:space="preserve">
<style type="text/css">
	.st0{fill:#6E7DC0;}
	.st1{fill:#FFFFFF;stroke:#FFFFFF;stroke-miterlimit:10;}
	.st2{opacity:0.1;}
	.st3{fill-rule:evenodd;clip-rule:evenodd;fill:#6E7DBC;}
</style>
<g>
	<path class="st3" d="M152.4,581.3h34c0.2,0,0.2,0,0.2-0.2V438.5c0-0.2,0-0.2-0.2-0.2h-34c-0.2,0-0.2,0-0.2,0.2v142.6
		C152.2,581.3,152.2,581.3,152.4,581.3L152.4,581.3z"/>
	<path class="st3" d="M420.5,465.5c-21.4,0-33.2,6.2-48.3,18.7c0,0-0.2-0.2-0.2,0c0-1.2,0.5-8.7-1-8.7c-9.4,0-23.3-0.3-33.3,0v105.3
		c13,0.2,34.3,0,34.3,0c0.2-20.4,0.2-43.4,0.2-65.1c1.3-9.2,10.5-23,34.2-23c16.8-1.3,20.7,11.8,20.7,26.6c0,16.4,0,40.1,0,61.4
		h34.2c0-9.2,3.6-64.7-1.3-85.7C454,468.7,428,465.8,420.5,465.5L420.5,465.5z"/>
	<path class="st3" d="M6.5,428.8l35.2,9.5v39.4c10.8-6.9,24-11,38.3-11c35.6,0,64.7,26,64.7,57.7c0,31.7-29.1,57.7-64.7,57.7
		c-14.3,0-27.4-3.9-38.3-10.8v9.7H6.5V428.8L6.5,428.8z M74.7,493.4c18.4,0,33.2,14.1,33.2,31.9c0,17.4-14.8,31.9-33.2,31.9
		c-18.1,0-32.9-14.5-32.9-31.9C41.8,507.5,56.6,493.4,74.7,493.4L74.7,493.4z"/>
	<path class="st3" d="M607.2,428.8l-35.5,9.5l-0.2,39.6c-10.7-6.9-23.8-11.2-38.1-11.2c-35.6,0-64.7,26-64.7,57.7
		c0,31.7,29.1,57.7,64.7,57.7c14,0,27.1-3.9,37.8-10.7l-0.2,9.5h36.1V428.8L607.2,428.8z M538.7,493.4c-18.1,0-32.9,14.1-32.9,31.9
		c0,17.4,14.8,31.9,32.9,31.9c18.4,0,33.2-14.5,33.2-31.9C571.9,507.5,557.1,493.4,538.7,493.4L538.7,493.4z"/>
	<path class="st3" d="M747.2,531.7c-0.3-40.7-16.3-68.8-70-66.9c-42.4,1-64.1,22.8-63.2,62.8c3.4,39.1,25.1,50.6,61.1,55.9
		c31,1.2,52.9-9.5,60.3-24.3c-8-5.7-18.1-10.8-26-16.4c-8.7,12.2-16.4,18.6-29.6,16.6c-23-3.4-26.8-14.5-27.6-27.4
		C683,531.8,716.7,531.7,747.2,531.7L747.2,531.7z M653.7,509.2c2-11.8,8.5-21.7,27.3-23c16.8,0,27.3,10.2,27.3,23
		C708.3,509.2,652.4,509.2,653.7,509.2L653.7,509.2z"/>
	<path class="st3" d="M328.3,531.7c-0.3-40.7-16.3-68.8-70-66.9c-42.4,1-64.1,22.8-63.2,62.8c3.5,39.1,25.1,50.6,61.1,55.9
		c31,1.2,52.9-9.5,60.3-24.3c-8.4-5.4-17.7-11.2-26-16.4c-8.7,12.2-16.4,18.6-29.6,16.6c-23-3.4-26.8-14.5-27.6-27.4
		C264.1,531.8,297.8,531.7,328.3,531.7L328.3,531.7z M234.8,509.2c2-11.8,8.5-21.7,27.3-23c16.8,0,27.3,10.2,27.3,23
		C289.4,509.2,233.5,509.2,234.8,509.2L234.8,509.2z"/>
	<path class="st3" d="M760,580.9h32.5c0.7,0,1,0,1-0.3v-64.6c7.7-15.3,20.7-18.6,39.9-17.7l-0.2-29.4c-22.5,0.8-29.1,2.8-39.8,14.5
		v-7.9c0-0.3-0.3-0.3-1-0.3H760c-0.7,0-1,0-1,0.3v105.1C759,580.9,759.4,580.9,760,580.9L760,580.9z"/>
	<path class="st3" d="M383.6,155.9H216.5c-30.1,2.3-25.3,42.4-3.1,42.1c20.5-0.3,55,0,79.5,0c-35.2,33.2-113.7,83.5-148,116.1
		c-13.3,12.6-12.5,49.4,26.1,40.9c14.6-8,80.7-61.9,89.7-71.1c4.6,114.5,133.4,168.2,230.1,101c51.4-35.8,69.2-126.5,28.9-171.2
		c-31.7-35.5-89.5-71-158.7-128.6c-11-9-44-4.4-32.9,22.5C328.2,107.6,357.6,137,383.6,155.9L383.6,155.9z M400.5,196.1
		c47.6,0,86.7,35.2,86.7,77.9c0,43-39.1,77.9-86.7,77.9c-48,0-86.7-34.8-86.7-77.9C313.8,231.3,352.5,196.1,400.5,196.1L400.5,196.1
		z"/>
	<path class="st3" d="M403.5,221.3c29.6,0,53.8,22.8,53.8,50.7c0,27.9-24.2,50.7-53.8,50.7s-53.8-22.8-53.8-50.7
		C349.7,244,373.9,221.3,403.5,221.3L403.5,221.3z"/>
</g>
</svg>
